<svg width="70" height="88" viewBox="0 0 70 88" fill="none" xmlns="http://www.w3.org/2000/svg">
<path d="M12.8092 46.1998H18.6192C19.1792 46.1998 19.7392 46.1298 20.2292 45.9198C20.7892 46.7598 21.5592 47.4598 22.3292 47.9498L32.4092 54.3898C33.1792 54.8798 33.8792 55.0898 34.6492 55.0898C36.1192 55.0898 37.7292 53.9698 37.7292 51.4498V18.4798C37.7292 15.9598 36.1192 14.8398 34.6492 14.8398C33.9492 14.8398 33.1792 15.0498 32.4092 15.5398L22.3292 21.9798C21.5592 22.4698 20.8592 23.1698 20.2292 24.0098C19.7392 23.8698 19.1792 23.7298 18.6192 23.7298H12.8092C10.0092 23.7298 7.69922 26.0398 7.69922 28.8398V40.9498C7.69922 43.8898 10.0092 46.1998 12.8092 46.1998ZM23.7992 24.4298L33.8792 17.9898C34.2992 17.7098 34.5092 17.7098 34.5792 17.7098C34.7892 17.7098 34.8592 18.1998 34.8592 18.5498V51.5198C34.8592 51.8698 34.7892 52.3598 34.5792 52.3598C34.5092 52.3598 34.2292 52.3598 33.8792 52.0798L23.7992 45.5698C23.0992 45.1498 22.4692 44.3798 22.0492 43.4698C21.6292 42.6298 21.3492 41.7898 21.3492 41.0198V28.9798C21.3492 28.2098 21.6292 27.2998 22.0492 26.5298C22.4692 25.6198 23.0992 24.8498 23.7992 24.4298ZM10.4992 28.9798C10.4992 27.7198 11.5492 26.6698 12.8092 26.6698H18.6192C18.7592 26.6698 18.8292 26.6698 18.9692 26.6698C18.6892 27.4398 18.5492 28.2098 18.5492 28.9798V41.0898C18.5492 41.8598 18.6892 42.6298 18.9692 43.3998C18.8292 43.3998 18.7592 43.3998 18.6192 43.3998H12.8092C11.5492 43.3998 10.4992 42.3498 10.4992 41.0898V28.9798Z" fill="#1762A7"/>
<path d="M44.5899 44.2397C44.8699 44.5197 45.2199 44.6597 45.5699 44.6597C45.9199 44.6597 46.2699 44.5197 46.5499 44.2397C51.6599 39.1297 51.6599 30.8697 46.5499 25.8297C45.9899 25.2697 45.1499 25.2697 44.5899 25.8297C44.0299 26.3897 44.0299 27.2297 44.5899 27.7897C48.5799 31.7797 48.5799 38.2897 44.5899 42.2797C44.0299 42.7697 44.0299 43.6797 44.5899 44.2397Z" fill="#1762A7"/>
<path d="M48.9298 46.55C48.3698 47.11 48.3698 47.95 48.9298 48.51C49.2098 48.79 49.5598 48.93 49.9098 48.93C50.2598 48.93 50.6098 48.79 50.8898 48.51C58.3798 41.02 58.3798 28.91 50.8898 21.42C50.3298 20.86 49.4898 20.86 48.9298 21.42C48.3698 21.98 48.3698 22.82 48.9298 23.38C55.2998 29.82 55.2998 40.18 48.9298 46.55Z" fill="#1762A7"/>
<path d="M52.9884 50.6799C52.4284 51.2399 52.4284 52.0799 52.9884 52.6399C53.2684 52.9199 53.6184 53.0599 53.9684 53.0599C54.3184 53.0599 54.6684 52.9199 54.9484 52.6399C64.6784 42.9099 64.6784 27.0899 54.9484 17.3599C54.3884 16.7999 53.5484 16.7999 52.9884 17.3599C52.4284 17.9199 52.4284 18.7599 52.9884 19.3199C61.6684 27.9999 61.6684 41.9999 52.9884 50.6799Z" fill="#1762A7"/>
<rect x="9.625" y="25.375" width="28" height="18.375" fill="#1762A7"/>
<path d="M21.875 24.9375L35 17.0625V53.375L21.875 45.0625V24.9375Z" fill="#1762A7"/>
<line x1="18.625" y1="16.875" x2="18.625" y2="47.875" stroke="#141414" stroke-width="4" stroke-linecap="round"/>
</svg>
